<?xml version="1.0" encoding="UTF-8"?><svg id="Layer_1" xmlns="http://www.w3.org/2000/svg" viewBox="0 0 512 512"><defs><style>.cls-1{fill:none;}.cls-2{isolation:isolate;opacity:.4;}.cls-2,.cls-3{fill:#0790e8;}</style></defs><rect class="cls-1" width="512" height="512"/><path class="cls-2" d="M54.86,73.14v365.71c0,10.06,8.23,18.29,18.29,18.29h365.71c10.06,0,18.29-8.23,18.29-18.29V73.14c0-10.06-8.23-18.29-18.29-18.29H73.14c-10.06,0-18.29,8.23-18.29,18.29ZM109.71,118.86c0-15.2,12.23-27.43,27.43-27.43,156.57,0,283.43,126.86,283.43,283.43,0,15.2-12.23,27.43-27.43,27.43s-27.43-12.23-27.43-27.43c0-126.29-102.29-228.57-228.57-228.57-15.2,0-27.43-12.23-27.43-27.43ZM109.71,228.57c0-15.2,12.23-27.43,27.43-27.43,95.89,0,173.71,77.83,173.71,173.71,0,15.2-12.23,27.43-27.43,27.43s-27.43-12.23-27.43-27.43c0-65.6-53.26-118.86-118.86-118.86-15.2,0-27.43-12.23-27.43-27.43ZM182.86,365.71c0,20.2-16.37,36.57-36.57,36.57s-36.57-16.37-36.57-36.57,16.37-36.57,36.57-36.57,36.57,16.37,36.57,36.57Z"/><path class="cls-3" d="M73.14,54.86c-10.06,0-18.29,8.23-18.29,18.29v365.71c0,10.06,8.23,18.29,18.29,18.29h365.71c10.06,0,18.29-8.23,18.29-18.29V73.14c0-10.06-8.23-18.29-18.29-18.29H73.14ZM0,73.14C0,32.8,32.8,0,73.14,0h365.71c40.34,0,73.14,32.8,73.14,73.14v365.71c0,40.34-32.8,73.14-73.14,73.14H73.14c-40.34,0-73.14-32.8-73.14-73.14V73.14ZM109.71,118.86c0-15.2,12.23-27.43,27.43-27.43,156.57,0,283.43,126.86,283.43,283.43,0,15.2-12.23,27.43-27.43,27.43s-27.43-12.23-27.43-27.43c0-126.29-102.29-228.57-228.57-228.57-15.2,0-27.43-12.23-27.43-27.43ZM109.71,228.57c0-15.2,12.23-27.43,27.43-27.43,95.89,0,173.71,77.83,173.71,173.71,0,15.2-12.23,27.43-27.43,27.43s-27.43-12.23-27.43-27.43c0-65.6-53.26-118.86-118.86-118.86-15.2,0-27.43-12.23-27.43-27.43ZM109.71,365.71c0-20.2,16.37-36.57,36.57-36.57s36.57,16.37,36.57,36.57-16.37,36.57-36.57,36.57-36.57-16.37-36.57-36.57Z"/></svg>