<?xml version="1.0" encoding="UTF-8"?><svg id="Layer_1" xmlns="http://www.w3.org/2000/svg" viewBox="0 0 512 512"><defs><style>.cls-1{fill:none;}.cls-2{isolation:isolate;opacity:.4;}.cls-2,.cls-3{fill:#0790e8;}</style></defs><rect class="cls-1" width="512" height="512"/><path class="cls-2" d="M71.11,199.11h199.11v49.07c-22.4,23.73-37.51,54.58-41.6,88.8-16.27,11.64-36.36,18.58-57.96,18.58-55.02,0-99.56-44.53-99.56-99.56v-56.89Z"/><path class="cls-3" d="M113.78,49.78c0-11.82-9.51-21.33-21.33-21.33s-21.33,9.51-21.33,21.33v78.22h42.67V49.78ZM270.22,49.78c0-11.82-9.51-21.33-21.33-21.33s-21.33,9.51-21.33,21.33v78.22h42.67V49.78ZM21.33,156.44c-11.82,0-21.33,9.51-21.33,21.33s9.51,21.33,21.33,21.33h7.11v56.89c0,71.29,52.44,130.31,120.89,140.62v65.6c0,11.82,9.51,21.33,21.33,21.33s21.33-9.51,21.33-21.33v-65.6c13.51-2.04,26.4-5.96,38.31-11.47-1.87-9.6-2.76-19.47-2.76-29.6,0-6.31.36-12.53,1.07-18.58-16.27,11.64-36.36,18.58-57.96,18.58-55.02,0-99.56-44.53-99.56-99.56v-56.89h199.11v49.07c12.27-12.98,26.67-23.82,42.67-32v-17.07h7.11c11.82,0,21.33-9.51,21.33-21.33s-9.51-21.33-21.33-21.33H21.33ZM384,483.56c70.69,0,128-57.31,128-128s-57.31-128-128-128-128,57.31-128,128,57.31,128,128,128ZM426.58,283.56c3.82,3.29,4.8,8.8,2.31,13.24l-26.76,48.09h31.64c4.62,0,8.71,2.93,10.13,7.29,1.42,4.36-.09,9.16-3.73,11.91l-85.33,64c-4,3.02-9.6,2.84-13.42-.53s-4.8-8.8-2.31-13.24l26.76-48.09h-31.64c-4.62,0-8.71-2.93-10.13-7.29-1.42-4.36.09-9.16,3.73-11.91l85.33-64c4-3.02,9.6-2.84,13.42.53h0Z"/></svg>