<?xml version="1.0" encoding="UTF-8"?><svg id="Layer_1" xmlns="http://www.w3.org/2000/svg" viewBox="0 0 512 512"><defs><style>.cls-1{fill:none;}.cls-2{isolation:isolate;opacity:.4;}.cls-2,.cls-3{fill:#0790e8;}</style></defs><rect class="cls-1" width="512" height="512"/><path class="cls-2" d="M54.86,73.14v365.71c0,10.06,8.23,18.29,18.29,18.29h365.71c10.06,0,18.29-8.23,18.29-18.29V73.14c0-10.06-8.23-18.29-18.29-18.29H73.14c-10.06,0-18.29,8.23-18.29,18.29ZM116.91,136.91c10.29-11.2,27.54-11.89,38.74-1.71l109.71,100.57c5.71,5.14,8.91,12.57,8.91,20.23s-3.2,14.97-8.91,20.23l-109.71,100.57c-11.2,10.29-28.57,9.49-38.74-1.71-10.17-11.2-9.49-28.57,1.71-38.74l87.66-80.34-87.66-80.34c-11.2-10.29-11.89-27.54-1.71-38.74h0ZM219.43,374.86c0-15.2,12.23-27.43,27.43-27.43h128c15.2,0,27.43,12.23,27.43,27.43s-12.23,27.43-27.43,27.43h-128c-15.2,0-27.43-12.23-27.43-27.43Z"/><path class="cls-3" d="M438.86,54.86c10.06,0,18.29,8.23,18.29,18.29v365.71c0,10.06-8.23,18.29-18.29,18.29H73.14c-10.06,0-18.29-8.23-18.29-18.29V73.14c0-10.06,8.23-18.29,18.29-18.29h365.71ZM73.14,0C32.8,0,0,32.8,0,73.14v365.71c0,40.34,32.8,73.14,73.14,73.14h365.71c40.34,0,73.14-32.8,73.14-73.14V73.14c0-40.34-32.8-73.14-73.14-73.14H73.14ZM116.91,136.91c-10.29,11.2-9.49,28.57,1.71,38.74l87.66,80.34-87.66,80.34c-11.2,10.29-11.89,27.54-1.71,38.74s27.54,11.89,38.74,1.71l109.71-100.57c5.71-5.14,8.91-12.57,8.91-20.23s-3.2-14.97-8.91-20.23l-109.71-100.57c-11.2-10.29-28.57-9.49-38.74,1.71h0ZM246.86,347.43c-15.2,0-27.43,12.23-27.43,27.43s12.23,27.43,27.43,27.43h128c15.2,0,27.43-12.23,27.43-27.43s-12.23-27.43-27.43-27.43h-128Z"/></svg>