<?xml version="1.0" encoding="UTF-8"?><svg id="Layer_1" xmlns="http://www.w3.org/2000/svg" viewBox="0 0 512 512"><defs><style>.cls-1{fill:none;}.cls-2{isolation:isolate;opacity:.4;}.cls-2,.cls-3{fill:#0790e8;}</style></defs><rect class="cls-1" width="512" height="512"/><path class="cls-2" d="M80,86v88.7c13.3,7.2,31.6,14.2,54.8,19.9,33.9,8.4,75.7,13.4,121.2,13.4s87.3-5,121.2-13.4c23.1-5.7,41.5-12.7,54.8-19.9v-88.7l-.6-.5c-5.3-4.5-15.9-10.7-33.2-16.9-34.1-12.1-84.4-20.6-142.2-20.6s-108.1,8.5-142.2,20.6c-17.3,6.2-27.9,12.4-33.2,16.9l-.6.5ZM80,227.5v75.2c13.3,7.2,31.6,14.2,54.8,19.9,33.9,8.4,75.7,13.4,121.2,13.4s87.3-5,121.2-13.4c23.1-5.7,41.5-12.7,54.8-19.9v-75.2c-13.3,5.3-27.9,9.9-43.3,13.7-38.2,9.4-83.9,14.8-132.7,14.8s-94.5-5.4-132.7-14.8c-15.4-3.8-30-8.3-43.3-13.7ZM80,355.5v70.5l.6.5c5.3,4.5,15.9,10.7,33.2,16.9,34.1,12.1,84.4,20.6,142.2,20.6s108.1-8.5,142.2-20.6c17.3-6.2,27.8-12.4,33.2-16.9l.6-.5v-70.4c-13.3,5.3-27.9,9.9-43.3,13.7-38.2,9.3-83.9,14.7-132.7,14.7s-94.5-5.4-132.7-14.8c-15.4-3.8-30-8.3-43.3-13.7Z"/><path class="cls-3" d="M432,86v88.7c-13.3,7.2-31.6,14.2-54.8,19.9-33.9,8.4-75.7,13.4-121.2,13.4s-87.3-5-121.2-13.4c-23.2-5.7-41.5-12.6-54.8-19.9v-88.7l.6-.5c5.3-4.5,15.9-10.7,33.2-16.9,34.1-12.1,84.4-20.6,142.2-20.6s108.1,8.5,142.2,20.6c17.3,6.2,27.8,12.4,33.2,16.9l.6.5h0ZM432,227.5v75.2c-13.3,7.2-31.6,14.2-54.8,19.9-33.9,8.4-75.7,13.4-121.2,13.4s-87.3-5-121.2-13.4c-23.2-5.7-41.5-12.6-54.8-19.9v-75.2c13.3,5.3,27.9,9.9,43.3,13.7,38.2,9.4,83.9,14.8,132.7,14.8s94.5-5.4,132.7-14.8c15.4-3.8,30-8.3,43.3-13.7ZM80,426v-70.4c13.3,5.3,27.9,9.9,43.3,13.7,38.2,9.3,83.9,14.7,132.7,14.7s94.5-5.4,132.7-14.8c15.4-3.8,30-8.3,43.3-13.7v70.4l-.6.5c-5.3,4.5-15.9,10.7-33.2,16.9-34.1,12.2-84.4,20.7-142.2,20.7s-108.1-8.5-142.2-20.6c-17.3-6.2-27.8-12.4-33.2-16.9l-.6-.5ZM434.1,423.9s0,.1-.2.2l.1-.2v-.1l.1.1ZM78,423.9s0,.1.2.2c-.1-.1-.1-.2-.2-.2ZM78,88.1s.1-.1.2-.2c-.1.1-.2.2-.2.2ZM434,87.9l.2.2s0-.1-.2-.2ZM480,432V80C480,35.8,379.7,0,256,0S32,35.8,32,80v352c0,44.2,100.3,80,224,80s224-35.8,224-80Z"/></svg>