<svg width="84" height="84" viewBox="0 0 84 84" fill="none" xmlns="http://www.w3.org/2000/svg">
<path d="M84 42.063C83.998 41.4607 83.9841 40.8616 83.9571 40.2654V6.27441L74.56 15.6715C66.869 6.25741 55.169 0.244507 42.064 0.244507C28.426 0.244507 16.31 6.75421 8.651 16.8355L24.054 32.4005C25.5635 29.6088 27.7079 27.211 30.2935 25.4C32.9826 23.3015 36.7928 21.5857 42.0635 21.5857C42.7002 21.5857 43.1917 21.6601 43.5528 21.8003C50.0832 22.3157 55.7438 25.9197 59.0768 31.1506L48.1738 42.0536C61.9838 41.9994 77.5848 41.9676 83.9988 42.0606" fill="#1C3AA9" style="fill:#1C3AA9;fill:color(display-p3 0.1098 0.2275 0.6627);fill-opacity:1;"/>
<path d="M41.819 0.246002C41.2167 0.248002 40.6176 0.261902 40.0214 0.288902H6.03039L15.4275 9.686C6.01339 17.377 0.000488281 29.077 0.000488281 42.182C0.000488281 55.82 6.51029 67.936 16.5915 75.595L32.1565 60.192C29.3648 58.6825 26.967 56.5381 25.156 53.9525C23.0576 51.2634 21.3417 47.4532 21.3417 42.1825C21.3417 41.5458 21.4161 41.0543 21.5563 40.6932C22.0717 34.1628 25.6757 28.5022 30.9066 25.1692L41.8096 36.0722C41.7554 22.2622 41.7235 6.6612 41.8166 0.247202" fill="#4285F4" style="fill:#4285F4;fill:color(display-p3 0.2588 0.5216 0.9569);fill-opacity:1;"/>
<path d="M0.00201416 42.181C0.00401416 42.7833 0.0179142 43.3824 0.0449142 43.9786V77.9696L9.44202 68.5725C17.133 77.9866 28.833 83.9995 41.938 83.9995C55.576 83.9995 67.692 77.4898 75.351 67.4085L59.948 51.8435C58.4385 54.6352 56.2941 57.033 53.7085 58.844C51.0194 60.9425 47.2092 62.6583 41.9385 62.6583C41.3018 62.6583 40.8103 62.5839 40.4492 62.4437C33.9188 61.9283 28.2582 58.3243 24.9252 53.0934L35.8282 42.1904C22.0182 42.2446 6.41722 42.2764 0.00321579 42.1834" fill="#ABABAB" style="fill:#ABABAB;fill:color(display-p3 0.6706 0.6706 0.6706);fill-opacity:1;"/>
</svg>