<?xml version="1.0" encoding="UTF-8"?><svg id="Layer_1" xmlns="http://www.w3.org/2000/svg" viewBox="0 0 512 512"><defs><style>.cls-1{isolation:isolate;opacity:.4;}.cls-1,.cls-2{fill:#0790e8;}</style></defs><path class="cls-2" d="M162.67,368c-7.33,0-13.33,6.48-13.33,14.4v86.4c0,7.92-6,14.4-13.33,14.4s-13.33-6.48-13.33-14.4v-14.4c0-7.92-6-14.4-13.33-14.4s-13.33,6.48-13.33,14.4v14.4c0,23.85,17.92,43.2,40,43.2s40-19.35,40-43.2v-86.4c0-7.92-6-14.4-13.33-14.4h-.02Z"/><path class="cls-2" d="M267,434.15l-26-14.04c-3.92-2.07-6.33-6.3-6.33-10.98,0-6.84,5.17-12.33,11.42-12.33h21.92c7.33,0,13.33-6.48,13.33-14.4s-6-14.4-13.33-14.4h-21.92c-21.08,0-38.08,18.45-38.08,41.13,0,15.57,8.17,29.79,21,36.72l26,14.04c3.92,2.07,6.33,6.3,6.33,10.98,0,6.84-5.17,12.33-11.42,12.33h-28.58c-7.33,0-13.33,6.48-13.33,14.4s6,14.4,13.33,14.4h28.58c21.08,0,38.08-18.45,38.08-41.13,0-15.57-8.08-29.79-21-36.72Z"/><path class="cls-2" d="M366.67,368h-13.33c-18.42,0-33.33,16.11-33.33,36v72c0,19.89,14.92,36,33.33,36h13.33c18.42,0,33.33-16.11,33.33-36v-72c0-19.89-14.92-36-33.33-36h0ZM373.33,476c0,3.96-3,7.2-6.67,7.2h-13.33c-3.67,0-6.67-3.24-6.67-7.2v-72c0-3.96,3-7.2,6.67-7.2h13.33c3.67,0,6.67,3.24,6.67,7.2v72Z"/><path class="cls-2" d="M498.67,368.02c-7.33,0-13.33,6.48-13.33,14.4v54.16l-28.08-60.64c-2.75-5.94-9-9.09-15-7.56s-10.25,7.38-10.25,14.04v115.16c0,7.92,6,14.4,13.33,14.4s13.33-6.48,13.33-14.4v-54.16l28.08,60.64c2.75,5.94,9,9.09,15,7.56,6-1.53,10.25-7.38,10.25-14.04v-115.16c0-7.92-6-14.4-13.33-14.4Z"/><path class="cls-1" d="M336,160h-80c-17.7,0-32-14.3-32-32V48H64c-8.8,0-16,7.2-16,16v320c0-35.3,28.7-64,64-64h224v-160Z"/><path class="cls-2" d="M365.3,109.2l-90.5-90.5C262.8,6.7,246.5,0,229.5,0H64C28.65,0,0,28.65,0,64v424c0,13.25,10.75,24,24,24s24-10.75,24-24V64c0-8.8,7.2-16,16-16h160v80c0,17.67,14.33,32,32,32h80v160h48v-165.5c0-17-6.7-33.3-18.7-45.3Z"/></svg>