<?xml version="1.0" encoding="UTF-8"?><svg id="Layer_1" xmlns="http://www.w3.org/2000/svg" viewBox="0 0 64 64"><defs><style>.cls-1{fill:none;}.cls-2{fill:#3c077e;}.cls-3{fill:#f2eeff;}.cls-4{fill:#873fff;}.cls-5{fill:#fff;}</style></defs><title>Woo Subscriptions icon - Uncanny Automator</title><g id="Layer_2"><rect class="cls-1" width="64" height="64"/></g><g id="Layer_11"><rect class="cls-3" y=".8" width="55.6" height="55.6" rx="6.7" ry="6.7"/><circle class="cls-5" cx="49.5" cy="48.5" r="14.5"/><path class="cls-2" d="M19.3,36.3v1.1h-2.2v-7.5h7.5v2.2h-3.6l2.4,2.4c1.3,1.3,3.1,2,4.9,2,3.4,0,6.3-2,7.5-5l2.1.9c-1.6,3.7-5.3,6.3-9.6,6.3s-4.8-1-6.5-2.7l-2.4-2.4v2.5l-.1.2ZM18.6,24.4c1.6-3.7,5.3-6.3,9.6-6.3s4.8,1,6.5,2.7l2.4,2.4v-3.6h2.2v7.5h-7.5v-2.2h3.6l-2.4-2.4c-1.3-1.3-3.1-2-4.9-2-3.4,0-6.3,2.1-7.5,5l-2.1-.9.1-.2Z"/><path class="cls-4" d="M37,55.8c-2.6-4.5-2.6-10,0-14.5s7.4-7.2,12.5-7.2,10,2.8,12.5,7.2c2.6,4.5,2.6,10,0,14.5s-7.4,7.2-12.5,7.2-10-2.8-12.5-7.2ZM50.7,42.5v-2.1h-2.4v2.2c-.4,0-.7.2-1.1.3-1,.4-1.9,1.2-2.1,2.5-.2,1.3.3,2.5,1.4,3.2.8.5,1.9.8,2.7,1.1.1,0,.3,0,.4.1.7.2,1.4.4,2,.8.7.5.3,1.3-.3,1.5-.5.2-1.3.3-2.2.1-.5,0-1.3-.3-2-.5-.4-.1-.8-.3-1.2-.4-.1,0-.2,0-.4-.1l-.7,2.3c.1,0,.3,0,.4.1.4.1.7.2,1.1.4.6.2,1.4.5,2.1.6v2.2h2.5v-2.1c.5,0,1-.2,1.4-.4,1.1-.4,1.9-1.3,2.2-2.5.2-1.3-.3-2.5-1.4-3.3-.8-.6-2-.9-2.9-1.1h0c-1-.3-1.7-.5-2.2-.8-.7-.4-.3-1.1.4-1.3.5-.2,1.3-.3,2.2-.2s1.9.4,2.8.6l.6-2.4c-1-.3-2-.5-3.1-.7h0l-.2-.1Z"/></g></svg>