<?xml version="1.0" encoding="UTF-8"?><svg xmlns="http://www.w3.org/2000/svg" viewBox="0 0 64 64"><defs><style>.cls-1{fill:none;}</style></defs><g id="Layer_2"><rect class="cls-1" width="64" height="64"/></g><g id="Layer_1"><path d="M61.23,14.35c1.96,1.98,2.55,5.21,2.67,7.9.3,6.51-.24,13.25,0,19.79-.44,8.28-5.1,10.57-12.78,10.89-7.03.29-14.42-.06-21.45-.23-7.22-.93-9.77-4.12-10.07-11.29-.24-5.75-.22-12.56,0-18.32.1-2.47.37-5.14,1.64-7.3,2.23-3.76,7.03-4.45,11.03-4.75,6.26.22,12.71-.28,18.95,0,3.32.15,7.58.86,10.01,3.3Z"/><path d="M6.44,11.08c6.12-.66,8.1,4.45,8.34,9.59.37,7.93-.19,16.24-.12,24.19-.43,3.86-2.2,7.75-6.56,8.07-5.54.4-7.63-4.08-7.95-8.89.35-7.92-.45-16.22,0-24.1.22-3.9,1.85-8.38,6.3-8.85Z"/></g></svg>