<?xml version="1.0" encoding="UTF-8"?><svg id="Layer_1" xmlns="http://www.w3.org/2000/svg" viewBox="0 0 512 512"><defs><style>.cls-1{fill:none;}.cls-2{fill:#0790e8;}</style></defs><rect class="cls-1" width="512" height="512"/><path class="cls-2" d="M164.57,54.86v109.71H54.86V54.86h109.71ZM54.86,0C24.57,0,0,24.57,0,54.86v109.71c0,30.29,24.57,54.86,54.86,54.86h109.71c30.29,0,54.86-24.57,54.86-54.86V54.86C219.43,24.57,194.86,0,164.57,0H54.86ZM164.57,347.43v109.71H54.86v-109.71h109.71ZM54.86,292.57c-30.29,0-54.86,24.57-54.86,54.86v109.71c0,30.29,24.57,54.86,54.86,54.86h109.71c30.29,0,54.86-24.57,54.86-54.86v-109.71c0-30.29-24.57-54.86-54.86-54.86H54.86ZM347.43,54.86h109.71v109.71h-109.71V54.86ZM292.57,54.86v109.71c0,30.29,24.57,54.86,54.86,54.86h109.71c30.29,0,54.86-24.57,54.86-54.86V54.86C512,24.57,487.43,0,457.14,0h-109.71C317.14,0,292.57,24.57,292.57,54.86ZM82.29,100.57v18.29c0,10.06,8.23,18.29,18.29,18.29h18.29c10.06,0,18.29-8.23,18.29-18.29v-18.29c0-10.06-8.23-18.29-18.29-18.29h-18.29c-10.06,0-18.29,8.23-18.29,18.29ZM100.57,374.86c-10.06,0-18.29,8.23-18.29,18.29v18.29c0,10.06,8.23,18.29,18.29,18.29h18.29c10.06,0,18.29-8.23,18.29-18.29v-18.29c0-10.06-8.23-18.29-18.29-18.29h-18.29ZM374.86,100.57v18.29c0,10.06,8.23,18.29,18.29,18.29h18.29c10.06,0,18.29-8.23,18.29-18.29v-18.29c0-10.06-8.23-18.29-18.29-18.29h-18.29c-10.06,0-18.29,8.23-18.29,18.29ZM292.57,310.86v182.86c0,10.06,8.23,18.29,18.29,18.29h36.57c10.06,0,18.29-8.23,18.29-18.29v-73.14c0-10.06,8.23-18.29,18.29-18.29s18.29,8.23,18.29,18.29,8.23,18.29,18.29,18.29h73.14c10.06,0,18.29-8.23,18.29-18.29v-109.71c0-10.06-8.23-18.29-18.29-18.29s-18.29,8.23-18.29,18.29-8.23,18.29-18.29,18.29h-36.57c-10.06,0-18.29-8.23-18.29-18.29s-8.23-18.29-18.29-18.29h-73.14c-10.06,0-18.29,8.23-18.29,18.29ZM420.57,475.43c-10.1,0-18.29,8.19-18.29,18.29s8.19,18.29,18.29,18.29,18.29-8.19,18.29-18.29-8.19-18.29-18.29-18.29ZM493.71,475.43c-10.1,0-18.29,8.19-18.29,18.29s8.19,18.29,18.29,18.29,18.29-8.19,18.29-18.29-8.19-18.29-18.29-18.29Z"/></svg>