<?xml version="1.0" encoding="UTF-8"?>
<svg id="Layer_1" data-name="Layer 1" xmlns="http://www.w3.org/2000/svg" viewBox="0 0 512 512">
  <defs>
    <style>
      .cls-1 {
        isolation: isolate;
        opacity: .4;
      }

      .cls-1, .cls-2 {
        fill: #0790e8;
      }
    </style>
  </defs>
  <path class="cls-2" d="M254.66,368h-13.33c-18.42,0-33.33,16.11-33.33,36v72c0,19.89,14.92,36,33.33,36h13.33c18.42,0,33.33-16.11,33.33-36v-7.2c0-7.92-6-14.4-13.33-14.4s-13.33,6.48-13.33,14.4v7.2c0,3.96-3,7.2-6.67,7.2h-13.33c-3.67,0-6.67-3.24-6.67-7.2v-72c0-3.96,3-7.2,6.67-7.2h13.33c3.67,0,6.67,3.24,6.67,7.2v7.2c0,7.92,6,14.4,13.33,14.4s13.33-6.48,13.33-14.4v-7.2c0-19.89-14.92-36-33.33-36Z"/>
  <path class="cls-2" d="M498.65,368c-7.33,0-13.33,6.48-13.33,14.4v28.44c0,20.79-4.58,41.13-13.33,59.4-8.75-18.36-13.33-38.7-13.33-59.4v-28.44c0-7.92-6-14.4-13.33-14.4h0c-7.33,0-13.33,6.48-13.33,14.4v28.44c0,31.23,8.58,61.83,24.67,87.84l4.25,6.93c2.5,3.96,6.67,6.39,11.08,6.39s8.58-2.34,11.08-6.39l4.25-6.93c16.08-26.01,24.67-56.61,24.67-87.84v-28.44c0-7.92-6-14.4-13.33-14.4h-.02Z"/>
  <path class="cls-2" d="M379.37,434.33l-28.77-14.94c-3.69-1.89-6-6.12-6-10.8,0-6.48,4.54-11.79,10.08-11.79h26.85c6.77,0,12.31-6.48,12.31-14.4s-5.54-14.4-12.31-14.4h-26.85c-19.15,0-34.69,18.18-34.69,40.59,0,16.02,8.08,30.6,20.62,37.08l28.77,14.94c3.69,1.89,6,6.12,6,10.8,0,6.48-4.54,11.79-10.08,11.79h-33c-6.77,0-12.31,6.48-12.31,14.4s5.54,14.4,12.31,14.4h33c19.15,0,34.69-18.18,34.69-40.59,0-16.02-8.08-30.6-20.62-37.08h0Z"/>
  <path class="cls-2" d="M64,464c-8.8,0-16-7.2-16-16V64c0-8.8,7.2-16,16-16h159.99v80c0,17.7,14.3,32,32,32h80v160h48v-165.5c0-17-6.7-33.3-18.7-45.3l-90.5-90.5C262.79,6.7,246.49,0,229.49,0H64C28.7,0,0,28.7,0,64v384c0,35.3,28.7,64,64,64h96v-48H64Z"/>
  <path class="cls-1" d="M255.99,160c-17.7,0-32-14.3-32-32V48H64c-8.8,0-16,7.2-16,16v384c0,8.8,7.2,16,16,16h96v-80c0-35.3,28.7-64,64-64h112v-160h-80Z"/>
</svg>