<?xml version="1.0" encoding="UTF-8"?><svg id="Layer_1" xmlns="http://www.w3.org/2000/svg" viewBox="0 0 512 512"><defs><style>.cls-1{fill:none;}.cls-2{isolation:isolate;opacity:.4;}.cls-2,.cls-3{fill:#0790e8;}</style></defs><rect class="cls-1" width="512" height="512"/><path class="cls-2" d="M128.3,89.39v280.94l68.3-77.99c10.38-11.86,25.43-18.7,41.16-18.7h97.83L128.3,89.39Z"/><path class="cls-3" d="M237.76,273.64h97.83L128.3,89.39v280.94l68.3-77.99c10.38-11.86,25.43-18.7,41.16-18.7ZM73.57,449.23V26.45c0-14.59,11.86-26.45,26.45-26.45,6.5,0,12.77,2.39,17.56,6.73l312.41,277.75c5.36,4.79,8.44,11.63,8.44,18.81,0,13.91-11.29,25.2-25.2,25.2h-145.26l67.38,144.57c6.38,13.68.46,29.99-13.23,36.37-13.68,6.38-29.99.46-36.37-13.23l-67.73-145.37-100.45,114.93c-4.79,5.47-11.63,8.55-18.93,8.55-13.91,0-25.08-11.29-25.08-25.08Z"/></svg>