<?xml version="1.0" encoding="UTF-8"?><svg id="Layer_1" xmlns="http://www.w3.org/2000/svg" viewBox="0 0 512.05 512"><defs><style>.cls-1{fill:none;}.cls-2{fill:#0790e8;}</style></defs><rect class="cls-1" x=".03" width="512" height="512"/><path class="cls-2" d="M425,43.03l80,80c9.4,9.4,9.4,24.6,0,33.9l-80,80c-9.4,9.4-24.6,9.4-33.9,0s-9.4-24.6,0-33.9l39-39h-78.1c-12.6,0-24.4,5.9-32,16l-46,61.3-30-40,37.6-50.1c16.6-22.2,42.7-35.2,70.4-35.2h78.1l-39.1-39c-9.4-9.4-9.4-24.6,0-33.9s24.6-9.4,33.9,0l.1-.1ZM204,334.73l-37.6,50.1c-16.6,22.2-42.7,35.2-70.4,35.2H24c-13.3,0-24-10.7-24-24s10.7-24,24-24h72c12.6,0,24.4-5.9,32-16l46-61.3,30,40ZM391,299.03c9.4-9.4,24.6-9.4,33.9,0l80,80c9.4,9.4,9.4,24.6,0,33.9l-80,80c-9.4,9.4-24.6,9.4-33.9,0s-9.4-24.6,0-33.9l39-39h-78c-27.7,0-53.8-13-70.4-35.2l-153.6-204.8c-7.6-10.1-19.4-16-32-16H24c-13.3,0-24-10.7-24-24s10.7-24,24-24h72c27.7,0,53.8,13,70.4,35.2l153.6,204.8c7.6,10.1,19.4,16,32,16h78.1l-39-39c-9.4-9.4-9.4-24.6,0-33.9l-.1-.1Z"/></svg>