<?xml version="1.0" encoding="UTF-8"?><svg id="Layer_1" xmlns="http://www.w3.org/2000/svg" viewBox="0 0 512 512"><defs><style>.cls-1{fill:none;}.cls-2{isolation:isolate;opacity:.4;}.cls-2,.cls-3{fill:#0790e8;}</style></defs><rect class="cls-1" width="512" height="512"/><path class="cls-2" d="M158.9,105.93c0,29.25-23.71,52.97-52.97,52.97s-52.97-23.71-52.97-52.97,23.71-52.97,52.97-52.97,52.97,23.71,52.97,52.97ZM158.9,388.41c0,29.25-23.71,52.97-52.97,52.97s-52.97-23.71-52.97-52.97,23.71-52.97,52.97-52.97,52.97,23.71,52.97,52.97ZM441.38,105.93c0,29.25-23.71,52.97-52.97,52.97s-52.97-23.71-52.97-52.97,23.71-52.97,52.97-52.97,52.97,23.71,52.97,52.97Z"/><path class="cls-3" d="M52.97,105.93c0,29.25,23.71,52.97,52.97,52.97s52.97-23.71,52.97-52.97-23.71-52.97-52.97-52.97-52.97,23.71-52.97,52.97ZM105.93,211.86C47.43,211.86,0,164.44,0,105.93S47.43,0,105.93,0s105.93,47.43,105.93,105.93-47.43,105.93-105.93,105.93ZM52.97,388.41c0,29.25,23.71,52.97,52.97,52.97s52.97-23.71,52.97-52.97-23.71-52.97-52.97-52.97-52.97,23.71-52.97,52.97ZM105.93,494.34c-58.5,0-105.93-47.43-105.93-105.93s47.43-105.93,105.93-105.93,105.93,47.43,105.93,105.93-47.43,105.93-105.93,105.93ZM388.41,158.9c29.25,0,52.97-23.71,52.97-52.97s-23.71-52.97-52.97-52.97-52.97,23.71-52.97,52.97,23.71,52.97,52.97,52.97ZM494.34,105.93c0,58.5-47.43,105.93-105.93,105.93s-105.93-47.43-105.93-105.93S329.91,0,388.41,0s105.93,47.43,105.93,105.93ZM388.41,264.83c14.68,0,26.48,11.81,26.48,26.48v70.62h70.62c14.68,0,26.48,11.81,26.48,26.48s-11.81,26.48-26.48,26.48h-70.62v70.62c0,14.68-11.81,26.48-26.48,26.48s-26.48-11.81-26.48-26.48v-70.62h-70.62c-14.68,0-26.48-11.81-26.48-26.48s11.81-26.48,26.48-26.48h70.62v-70.62c0-14.68,11.81-26.48,26.48-26.48Z"/></svg>