<?xml version="1.0" encoding="UTF-8"?><svg id="icon" xmlns="http://www.w3.org/2000/svg" viewBox="0 0 64 64"><defs><style>.cls-1{fill:none;}.cls-2{isolation:isolate;opacity:.4;}.cls-2,.cls-3{fill:#0790e8;}</style></defs><rect id="box" class="cls-1" width="64" height="64"/><path id="icon-40" class="cls-2" d="M0,31.85l.05-1c.01-.29.04-.57.06-.85-.07.61-.11,1.22-.11,1.85ZM0,32.07c.04,1.55,1.27,2.84,2.85,2.92,1.65.09,3.06-1.19,3.15-2.85l.05-1c.45-9.05,7.91-16.15,16.97-16.15h14.97v4.55c0,2.45,1.99,4.45,4.45,4.45,1.1,0,2.16-.41,2.97-1.14l9.59-8.62c.09-.09.19-.17.26-.26,5.3,4.2,8.7,10.67,8.72,17.95-.05-1.55-1.27-2.82-2.85-2.91-1.65-.09-3.06,1.19-3.15,2.85l-.05,1c-.45,9.04-7.91,16.14-16.97,16.14h-14.97v-4.55c0-2.45-1.99-4.45-4.45-4.45-1.1,0-2.16.41-2.97,1.14l-9.59,8.62c-.09.09-.19.17-.26.26C3.43,45.84.03,39.35,0,32.07ZM63.88,34c.09-.66.11-1.32.11-2v-.09.24l-.05,1c-.01.29-.04.57-.06.85Z"/><path id="icon-100" class="cls-3" d="M2.85,35c-1.65-.09-2.92-1.5-2.85-3.15l.05-1C.67,18.61,10.78,9,23.03,9h14.97v-4.55C38,1.99,39.99,0,42.45,0c1.1,0,2.16.41,2.97,1.14l9.59,8.62c.64.57.99,1.37.99,2.22s-.36,1.66-.99,2.22l-9.59,8.62c-.81.74-1.87,1.14-2.97,1.14-2.45,0-4.45-1.99-4.45-4.45v-4.55h-14.97c-9.06.02-16.52,7.12-16.97,16.17l-.05,1c-.09,1.65-1.5,2.92-3.15,2.85ZM44,16.06l4.51-4.06-4.51-4.06v8.12ZM61.15,29c1.65.09,2.92,1.49,2.85,3.15l-.05,1c-.61,12.24-10.72,21.85-22.97,21.85h-14.97v4.55c0,2.45-1.99,4.45-4.45,4.45-1.1,0-2.16-.41-2.97-1.14l-9.59-8.62c-.64-.57-.99-1.37-.99-2.22s.36-1.66.99-2.22l9.59-8.62c.81-.74,1.87-1.14,2.97-1.14,2.45,0,4.45,1.99,4.45,4.45v4.55h14.97c9.06,0,16.52-7.1,16.97-16.15l.05-1c.09-1.65,1.49-2.92,3.15-2.85v-.02ZM20,47.94l-4.51,4.06,4.51,4.06v-8.12Z"/></svg>