<?xml version="1.0" encoding="UTF-8"?><svg id="Layer_1" xmlns="http://www.w3.org/2000/svg" viewBox="0 0 512 512"><defs><style>.cls-1{isolation:isolate;opacity:.4;}.cls-1,.cls-2{fill:#0790e8;}</style></defs><path class="cls-2" d="M288,382.4c0-7.92-6-14.4-13.33-14.4s-13.33,6.48-13.33,14.4c0,6.48-1.83,12.87-5.17,18.36l-8.17,13.23-8.17-13.23c-3.33-5.4-5.17-11.79-5.17-18.36,0-7.92-6-14.4-13.33-14.4s-13.33,6.48-13.33,14.4c0,12.24,3.33,24.21,9.67,34.38l14.33,23.22-14.33,23.13c-6.33,10.17-9.67,22.14-9.67,34.38,0,7.92,6,14.4,13.33,14.4s13.33-6.48,13.33-14.4c0-6.48,1.83-12.87,5.17-18.36l8.17-13.23,8.17,13.32c3.33,5.4,5.17,11.79,5.17,18.36,0,7.92,6,14.4,13.33,14.4s13.33-6.48,13.33-14.4c0-12.24-3.33-24.21-9.67-34.38l-14.33-23.22,14.33-23.22c6.33-10.17,9.67-22.14,9.67-34.38h0Z"/><path class="cls-2" d="M421.76,368.52c-6.04-1.71-12.51.9-15.75,6.48l-30.01,51.4-30.01-51.4c-3.24-5.58-9.71-8.19-15.75-6.48s-10.24,7.38-10.24,13.86v115.22c0,7.92,6.3,14.4,14,14.4s14-6.48,14-14.4v-63.19l16.01,27.45c2.54,4.41,7.09,7.02,11.99,7.02s9.45-2.7,11.99-7.02l16.01-27.45v63.19c0,7.92,6.3,14.4,14,14.4s14-6.48,14-14.4v-115.22c0-6.48-4.2-12.15-10.24-13.86Z"/><path class="cls-2" d="M500,483.2h-12v-100.8c0-7.92-5.4-14.4-12-14.4s-12,6.48-12,14.4v115.2c0,7.92,5.4,14.4,12,14.4h24c6.6,0,12-6.48,12-14.4s-5.4-14.4-12-14.4h0Z"/><path class="cls-2" d="M81.86,464h-17.86c-8.8,0-16-7.2-16-16V64c0-8.8,7.2-16,16-16h160v80c0,17.7,14.3,32,32,32h80v160h48v-165.5c0-17-6.7-33.3-18.7-45.3l-90.5-90.5C262.8,6.7,246.5,0,229.5,0H64C28.7,0,0,28.7,0,64v384c0,35.3,28.7,64,64,64h96v-48h-78.14Z"/><path class="cls-1" d="M336,160h-80c-17.7,0-32-14.3-32-32V48H64c-8.8,0-16,7.2-16,16v384c0,8.8,7.2,16,16,16h96v-80c0-35.3,28.7-64,64-64h112v-160Z"/></svg>