<?xml version="1.0" encoding="UTF-8"?><svg id="Layer_1" xmlns="http://www.w3.org/2000/svg" viewBox="0 0 512 512"><defs><style>.cls-1{fill:none;}.cls-2{isolation:isolate;opacity:.4;}.cls-2,.cls-3{fill:#0790e8;}</style></defs><rect class="cls-1" width="512" height="512"/><path class="cls-2" d="M75.29,419.24l223.72-223.72,32.56,32.56-223.72,223.72-32.56-32.56Z"/><path class="cls-3" d="M220.89,55.28l-35.48,13.27c-2.82,1.04-4.71,3.76-4.71,6.78s1.88,5.74,4.71,6.78l35.48,13.27,13.27,35.48c1.04,2.82,3.76,4.71,6.78,4.71s5.74-1.88,6.78-4.71l13.27-35.48,35.48-13.27c2.82-1.04,4.71-3.76,4.71-6.78s-1.88-5.74-4.71-6.78l-35.48-13.27-13.27-35.48c-1.04-2.82-3.76-4.71-6.78-4.71s-5.74,1.88-6.78,4.71l-13.27,35.48ZM434.26,60.27l32.56,32.56-103.34,103.25-32.56-32.56,103.34-103.25ZM75.29,419.24l223.72-223.72,32.56,32.56-223.72,223.72-32.56-32.56ZM402.26,28.36L43.39,387.24c-17.6,17.6-17.6,46.21,0,63.91l32.56,32.56c17.6,17.6,46.21,17.6,63.91,0L498.73,124.74c17.6-17.6,17.6-46.21,0-63.91l-32.56-32.47c-17.6-17.6-46.21-17.6-63.91,0ZM7.06,125.4c-4.24,1.6-7.06,5.65-7.06,10.16s2.82,8.56,7.06,10.16l53.18,19.95,19.95,53.18c1.6,4.24,5.65,7.06,10.16,7.06s8.56-2.82,10.16-7.06l19.95-53.18,53.18-19.95c4.24-1.6,7.06-5.65,7.06-10.16s-2.82-8.56-7.06-10.16l-53.18-19.95-19.95-53.18c-1.6-4.24-5.65-7.06-10.16-7.06s-8.56,2.82-10.16,7.06l-19.95,53.18L7.06,125.4ZM338.35,366.34c-4.24,1.6-7.06,5.65-7.06,10.16s2.82,8.56,7.06,10.16l53.18,19.95,19.95,53.18c1.6,4.24,5.65,7.06,10.16,7.06s8.56-2.82,10.16-7.06l19.95-53.18,53.18-19.95c4.24-1.6,7.06-5.65,7.06-10.16s-2.82-8.56-7.06-10.16l-53.18-19.95-19.95-53.18c-1.6-4.24-5.65-7.06-10.16-7.06s-8.56,2.82-10.16,7.06l-19.95,53.18-53.18,19.95Z"/></svg>