<?xml version="1.0" encoding="UTF-8"?><svg id="Layer_1" xmlns="http://www.w3.org/2000/svg" viewBox="0 0 512 512"><defs><style>.cls-1{fill:none;}.cls-2{isolation:isolate;opacity:.4;}.cls-2,.cls-3{fill:#0790e8;}</style></defs><rect class="cls-1" width="512" height="512"/><path class="cls-2" d="M42.67,199.11h341.33c-86.4,0-156.44,70.04-156.44,156.44,0,31.47,9.33,60.8,25.33,85.33H56.89c-7.82,0-14.22-6.4-14.22-14.22v-227.56Z"/><path class="cls-3" d="M113.78,28.44c11.82,0,21.33,9.51,21.33,21.33v35.56h128v-35.56c0-11.82,9.51-21.33,21.33-21.33s21.33,9.51,21.33,21.33v35.56h35.56c31.38,0,56.89,25.51,56.89,56.89v56.89H42.67v227.56c0,7.82,6.4,14.22,14.22,14.22h196c10.93,16.71,24.89,31.2,41.16,42.67H56.89c-31.38,0-56.89-25.51-56.89-56.89V142.22c0-31.38,25.51-56.89,56.89-56.89h35.56v-35.56c0-11.82,9.51-21.33,21.33-21.33ZM256,355.56c0-70.69,57.31-128,128-128s128,57.31,128,128-57.31,128-128,128-128-57.31-128-128ZM384,284.44c-7.82,0-14.22,6.4-14.22,14.22v56.89c0,7.82,6.4,14.22,14.22,14.22h42.67c7.82,0,14.22-6.4,14.22-14.22s-6.4-14.22-14.22-14.22h-28.44v-42.67c0-7.82-6.4-14.22-14.22-14.22Z"/></svg>