<?xml version="1.0" encoding="UTF-8"?><svg id="Layer_1" xmlns="http://www.w3.org/2000/svg" viewBox="0 0 512 512"><defs><style>.cls-1{fill:none;}.cls-2{isolation:isolate;opacity:.4;}.cls-2,.cls-3{fill:#0790e8;}</style></defs><rect class="cls-1" width="512" height="512"/><path class="cls-2" d="M48,190.38v96c0,8.8,7.2,16,16,16h96v-128h-96c-8.8,0-16,7.2-16,16Z"/><path class="cls-3" d="M432,72.28l-10.7,10.7c-56.8,56.8-133.2,89.4-213.3,91.3v128.1h0v.1c80.1,1.9,156.5,34.5,213.3,91.3l10.7,10.7V72.28ZM160,126.38h40.7c70,0,137.2-27.8,186.7-77.3l38-38c20.1-20.2,54.6-5.9,54.6,22.6v144.3c18.6,8.8,32,32.5,32,60.4s-13.4,51.6-32,60.4v144.3c0,28.5-34.5,42.8-54.6,22.6l-38-38c-47.8-47.8-112-75.4-179.4-77.2v103.9c0,30.9-25.1,56-56,56h-32c-30.9,0-56-25.1-56-56v-104c-35.3,0-64-28.7-64-64v-96c0-35.3,28.7-64,64-64h96ZM112,350.38v104c0,4.4,3.6,8,8,8h32c4.4,0,8-3.6,8-8v-104h-48ZM64,174.38c-8.8,0-16,7.2-16,16v96c0,8.8,7.2,16,16,16h96v-128h-96Z"/></svg>